<?xml version="1.0" encoding="utf-8"?>
<!-- Generator: Adobe Illustrator 18.0.0, SVG Export Plug-In . SVG Version: 6.00 Build 0)  -->
<!DOCTYPE svg PUBLIC "-//W3C//DTD SVG 1.1//EN" "http://www.w3.org/Graphics/SVG/1.1/DTD/svg11.dtd">
<svg version="1.1" id="Layer_1" xmlns="http://www.w3.org/2000/svg" xmlns:xlink="http://www.w3.org/1999/xlink" x="0px" y="0px"
	 viewBox="0 0 320 320" enable-background="new 0 0 320 320" xml:space="preserve">
<g transform="translate(0.000000,1024.000000) scale(0.100000,-0.100000)">
	<path fill="#03006A" d="M1521.9,9769.4c-108.8-7.8-228.4-33.4-328.1-70.3c-56.6-20.9-164.1-74.4-214.4-106.6
		c-305.6-195.9-497.8-512.5-526.6-866.6c-4.4-57.2-1.9-175.9,5-226.6c32.5-239.4,130-447.2,293.1-624.7
		c165-179.4,389.7-303.8,633.4-350c77.5-14.7,112.8-17.5,214.1-17.5s136.6,2.8,214.1,17.5c186.9,35.6,364.7,117.5,512.5,236.6
		c36.9,29.7,117.5,108.4,150,145.9c112.2,130.6,193.4,285.9,237.2,454.4c5.3,19.7,8.8,36.9,7.8,38.4c-0.9,1.3-4.4,2.5-8.1,2.5
		c-3.4,0-19.1,4.4-35,9.7c-78.8,26.3-135.9,86.6-158.8,167.2c-9.7,34.7-9.7,86.6,0.3,121.3c13.8,49.4,44.1,95.6,82.2,125.6
		c26.3,20.6,66.3,40.3,95.6,46.9c13.1,3.1,24.4,5.6,24.7,5.9c1.9,0.9-22.2,85.6-34.7,121.9c-42.8,125-104.4,236.3-190.6,343.8
		c-30.6,38.4-109.4,119.1-147.2,150.9c-177.2,149.1-386.3,240.3-614.1,267.8C1694.1,9768.4,1559.7,9771.9,1521.9,9769.4z
		 M1551.3,9127.2l8.1-6.3v-471.9c0-462.8,0-471.6-5.9-477.5c-3.4-3.4-10.9-7.2-16.6-8.1s-73.1-1.6-150-0.9l-139.4,0.9l-8.1,7.5
		l-8.1,7.5l-0.6,354.1l-0.9,353.8l-7.5,8.1c-15.9,17.2-45.6,18.1-62.8,1.9l-9.4-8.8v-350.6c0-390,1.6-365.3-21.3-371.9
		c-7.8-2.5-55.3-3.1-148.1-2.5l-136.6,0.9l-7.2,7.2l-7.2,7.2v470.3v470.6l17.5,15H1195C1542.2,9133.8,1542.8,9133.8,1551.3,9127.2z
		 M1945.9,9126.3l8.8-7.5l0.6-352.8c0.6-258.4,1.9-354.4,4.4-359.4c11.3-21.3,56.6-21.9,70-1.3c1.9,3.1,3.8,131.3,4.7,359.1
		l1.6,354.4l8.8,7.5l8.8,7.5h148.4h148.4l7.5-7.8l7.8-7.5v-470v-470l-8.1-7.5l-8.1-7.5l-343.4-0.9c-375-0.9-361.6-1.6-368.4,16.6
		c-2.2,5.6-2.8,168.8-2.5,475.6l0.9,467.2l7.5,5.9c6.9,5.6,14.1,5.9,150.6,5.9h143.1L1945.9,9126.3z"/>
	<path fill="#D70000" d="M2701.6,8825c-85.9-25.3-142.2-99.1-142.2-186.6c0-90.3,68.4-171.6,157.8-187.5c31.3-5.6,43.8-5.6,75,0
		c49.7,8.8,98.4,41.6,126.3,84.1c67.5,103.4,21.6,239.7-95.9,285.3C2794.4,8831.3,2730.9,8833.8,2701.6,8825z M2815.6,8651.3
		c0-89.1,0.6-91.9,16.6-87.8c5.9,1.6,8.8,0.6,11.3-4.4c2.8-5,2.5-6.9-2.5-9.7c-7.8-4.1-27.2-4.1-34.7,0
		c-10.3,5.6-12.5,23.8-12.5,102.5c0,75.6,0,75.9,7.2,78.8C2815.9,8736.6,2815.6,8738.8,2815.6,8651.3z M2686.3,8666.6l1.9-7.5
		l9.1,6.6c13.1,10,42.5,11.6,52.8,3.1c7.8-6.3,7.8-6.9,8.8-63.1l0.9-56.6l-10.3,0.9l-10.3,0.9l-0.9,48.1c-0.3,29.1-2.2,50-4.1,52.5
		c-5.3,5.9-21.6,5-33.1-2.2l-10.3-6.3v-46.9v-46.9H2680h-10.6l-1.3,58.8c-0.9,48.4-0.3,59.1,3.4,62.5
		C2678.8,8676.6,2684.1,8675,2686.3,8666.6z"/>
</g>
</svg>
