<?xml version="1.0" encoding="utf-8"?>
<!-- Generator: Adobe Illustrator 18.0.0, SVG Export Plug-In . SVG Version: 6.00 Build 0)  -->
<!DOCTYPE svg PUBLIC "-//W3C//DTD SVG 1.1//EN" "http://www.w3.org/Graphics/SVG/1.1/DTD/svg11.dtd">
<svg version="1.1" id="Layer_1" xmlns="http://www.w3.org/2000/svg" xmlns:xlink="http://www.w3.org/1999/xlink" x="0px" y="0px"
	 viewBox="-4 -4 290 290" enable-background="new -4 -4 290 290" xml:space="preserve">
<g>
	<g opacity="0.75">
		<circle fill="#1B3460" cx="145" cy="145" r="141"/>
	</g>
	<g>
		<g>
			<circle fill="#114D93" cx="141" cy="141" r="141"/>
		</g>
	</g>
</g>
<g>
	<g id="local-grocery-store_1_">
		<path fill="#FCEA00" d="M109,189c-8.8,0-15.9,7.2-15.9,16s7.1,16,15.9,16s16-7.2,16-16S117.8,189,109,189z M61,61v16h16l28.8,60.7
			L95,157.3c-1.3,2.2-2,4.9-2,7.7c0,8.8,7.2,16,16,16h96v-16h-92.6c-1.1,0-2-0.9-2-2l0.2-1l7.2-13h59.6c6,0,11.3-3.3,14-8.2l28.6-52
			c0.6-1.1,1-2.5,1-3.8c0-4.4-3.6-8-8-8H94.7l-7.5-16H61z M189,189c-8.8,0-15.9,7.2-15.9,16s7.1,16,15.9,16s16-7.2,16-16
			S197.8,189,189,189z"/>
	</g>
</g>
</svg>
