<?xml version="1.0" encoding="utf-8"?>
<!-- Generator: Adobe Illustrator 18.0.0, SVG Export Plug-In . SVG Version: 6.00 Build 0)  -->
<!DOCTYPE svg PUBLIC "-//W3C//DTD SVG 1.1//EN" "http://www.w3.org/Graphics/SVG/1.1/DTD/svg11.dtd">
<svg version="1.1" id="Layer_1" xmlns="http://www.w3.org/2000/svg" xmlns:xlink="http://www.w3.org/1999/xlink" x="0px" y="0px"
	 viewBox="0 0 320 320" enable-background="new 0 0 320 320" xml:space="preserve">
<g>
	<g opacity="0.75">
		<circle fill="#1B3460" cx="164.4" cy="164.4" r="155.6"/>
	</g>
	<g>
		<circle fill="#114D93" cx="160" cy="160" r="155.6"/>
	</g>
</g>
<g transform="translate(0.000000,1024.000000) scale(0.100000,-0.100000)">
	<path fill="#FCEA00" d="M1542.4,9629.3c-96.1-6.9-201.9-29.6-290-62.1c-50-18.5-145-65.7-189.5-94.2
		c-270.1-173.2-440-452.9-465.4-765.8c-3.9-50.5-1.7-155.5,4.4-200.2c28.7-211.6,114.9-395.2,259.1-552.1
		c145.8-158.5,344.4-268.4,559.8-309.3c68.5-13,99.7-15.5,189.2-15.5s120.7,2.5,189.2,15.5c165.2,31.5,322.3,103.8,452.9,209.1
		c32.6,26.2,103.8,95.8,132.6,129c99.1,115.4,171,252.7,209.6,401.6c4.7,17.4,7.7,32.6,6.9,34c-0.8,1.1-3.9,2.2-7.2,2.2
		c-3,0-16.8,3.9-30.9,8.6c-69.6,23.2-120.1,76.5-140.3,147.8c-8.6,30.7-8.6,76.5,0.3,107.2c12.2,43.6,38.9,84.5,72.6,111
		c23.2,18.2,58.6,35.6,84.5,41.4c11.6,2.8,21.5,5,21.8,5.2c1.7,0.8-19.6,75.7-30.7,107.7c-37.8,110.5-92.2,208.8-168.5,303.8
		c-27.1,34-96.7,105.2-130.1,133.4c-156.6,131.7-341.4,212.4-542.7,236.7C1694.6,9628.4,1575.8,9631.5,1542.4,9629.3z
		 M1568.4,9061.7l7.2-5.5v-417c0-409,0-416.8-5.2-422c-3-3-9.7-6.4-14.6-7.2c-5-0.8-64.6-1.4-132.6-0.8l-123.2,0.8l-7.2,6.6
		l-7.2,6.6l-0.6,312.9l-0.8,312.6l-6.6,7.2c-14.1,15.2-40.3,16-55.5,1.7l-8.3-7.7V8540c0-344.7,1.4-322.9-18.8-328.7
		c-6.9-2.2-48.9-2.8-130.9-2.2l-120.7,0.8l-6.4,6.4l-6.4,6.4v415.6v415.9l7.7,6.6l7.7,6.6h307.4
		C1560.4,9067.5,1560.9,9067.5,1568.4,9061.7z M1917.2,9060.9l7.7-6.6l0.6-311.8c0.6-228.4,1.7-313.2,3.9-317.6
		c9.9-18.8,50-19.3,61.9-1.1c1.7,2.8,3.3,116,4.1,317.3l1.4,313.2l7.7,6.6l7.7,6.6h131.2h131.2l6.6-6.9l6.9-6.6v-415.4v-415.4
		l-7.2-6.6l-7.2-6.6l-303.5-0.8c-331.4-0.8-319.5-1.4-325.6,14.6c-1.9,5-2.5,149.1-2.2,420.3l0.8,412.9l6.6,5.2
		c6.1,5,12.4,5.2,133.1,5.2h126.5L1917.2,9060.9z"/>
	<path fill="#FCEA00" d="M2585,8794.6c-75.9-22.4-125.7-87.5-125.7-164.9c0-79.8,60.5-151.6,139.5-165.7c27.6-5,38.7-5,66.3,0
		c43.9,7.7,87,36.7,111.6,74.3c59.7,91.4,19.1,211.8-84.8,252.2C2667,8800.2,2610.9,8802.4,2585,8794.6z M2685.8,8641.1
		c0-78.7,0.6-81.2,14.6-77.6c5.2,1.4,7.7,0.6,9.9-3.9c2.5-4.4,2.2-6.1-2.2-8.6c-6.9-3.6-24-3.6-30.7,0c-9.1,5-11,21-11,90.6
		c0,66.8,0,67.1,6.4,69.6C2686.1,8716.5,2685.8,8718.4,2685.8,8641.1z M2571.4,8654.6l1.7-6.6l8,5.8c11.6,8.8,37.6,10.2,46.7,2.8
		c6.9-5.5,6.9-6.1,7.7-55.8l0.8-50l-9.1,0.8l-9.1,0.8l-0.8,42.5c-0.3,25.7-1.9,44.2-3.6,46.4c-4.7,5.2-19.1,4.4-29.3-1.9l-9.1-5.5
		v-41.4v-41.4h-9.4h-9.4l-1.1,51.9c-0.8,42.8-0.3,52.2,3,55.2C2564.8,8663.5,2569.5,8662.1,2571.4,8654.6z"/>
</g>
</svg>
