<svg id="Layer_1" data-name="Layer 1" xmlns="http://www.w3.org/2000/svg" viewBox="0 0 566.93 153.78"><defs><style>.cls-1{fill:#666;}.cls-2{fill:#01178a;}.cls-3{fill:#fff;}</style></defs><path class="cls-1" d="M368.86,326.67a10.33,10.33,0,0,0-5.31-1.44c-5.95,0-9.91,4.28-9.91,10.08,0,6.06,4.36,10.09,9.72,10.09a12.68,12.68,0,0,0,5.62-1.26l.22,3.59a16.18,16.18,0,0,1-5.88.92c-8.16,0-13.59-5.25-13.59-13.45,0-7.94,5.76-13.22,13.63-13.22a14.13,14.13,0,0,1,5.8,1.11Z" transform="translate(-132.39 -199.6)"/><path class="cls-1" d="M400.3,322c7.83,0,12.41,5.69,12.41,13.33,0,7.84-4.54,13.34-12.41,13.34s-12.41-5.5-12.41-13.34C387.89,327.67,392.47,322,400.3,322Zm0,23.42c5.95,0,8.5-4.95,8.5-10.09s-2.81-10.12-8.5-10.08-8.5,4.84-8.5,10.08S394.35,345.4,400.3,345.4Z" transform="translate(-132.39 -199.6)"/><path class="cls-1" d="M440.5,322.42h3.8L455,348.21h-4l-2.57-6.5H436.08l-2.57,6.5h-3.8Zm1.77,3.22-5,13.06H447.3Z" transform="translate(-132.39 -199.6)"/><path class="cls-1" d="M478.6,325.67h-8v-3.25h19.73v3.25h-8v22.54H478.6Z" transform="translate(-132.39 -199.6)"/><path class="cls-1" d="M514.4,322.42h3.69v25.79H514.4Z" transform="translate(-132.39 -199.6)"/><path class="cls-1" d="M544.75,322.42h5l12,20.76h.07V322.42h3.69v25.79H560.8L548.51,327h-.07v21.21h-3.69Z" transform="translate(-132.39 -199.6)"/><path class="cls-1" d="M609.76,327c-1.8-1.18-3.73-1.77-7-1.77-5.88,0-9.8,4.32-9.8,10.08,0,6.06,4.32,10.09,9.62,10.09a15,15,0,0,0,4.1-.44v-7.83h-5.38v-3h9v13.41a23.07,23.07,0,0,1-7.79,1.14c-8.08,0-13.45-5.25-13.45-13.45,0-7.94,5.7-13.22,13.49-13.22a19.06,19.06,0,0,1,7.5,1.29Z" transform="translate(-132.39 -199.6)"/><path class="cls-1" d="M646.21,326.3a12.91,12.91,0,0,0-5.19-1.07c-2.22,0-5.12.74-5.12,3.43,0,5,12.17,3.81,12.17,12.31,0,5.5-4.56,7.68-10.1,7.68a19.89,19.89,0,0,1-5.67-1.07l.4-3.44a17.71,17.71,0,0,0,5.74,1.26c2.26,0,5.85-1.18,5.85-4.21,0-5.76-12.3-4.18-12.3-12.19,0-4.58,3.88-7,8.87-7a19.58,19.58,0,0,1,5.9.92Z" transform="translate(-132.39 -199.6)"/><polygon class="cls-1" points="56.81 110.09 0 110.09 0 113.34 60.06 113.34 56.81 110.09"/><polygon class="cls-1" points="185.97 110.09 182.72 113.34 566.93 113.34 566.93 110.09 185.97 110.09"/><path class="cls-2" d="M255.92,352.44a3.2,3.2,0,0,1-4.53,0l-73.7-73.68a3.24,3.24,0,0,1,0-4.54l73.7-73.69a3.2,3.2,0,0,1,4.53,0l73.7,73.69a3.22,3.22,0,0,1,0,4.54Z" transform="translate(-132.39 -199.6)"/><path class="cls-3" d="M268.1,280a14.5,14.5,0,0,1,0-29h20.13a1.71,1.71,0,0,0,1.71-1.71l0-2.47,0-4.47a1.71,1.71,0,0,0-1.71-1.71l-5.34,0-63.44,0H219a1.71,1.71,0,0,0-1.21,2.92l.6.61,29.06,29.09,1.06,1.12a3.42,3.42,0,0,1,.08,4.93l-1.81,1.78L219,308.81l-1.23,1.24a1.64,1.64,0,0,0-.49,1.19A1.72,1.72,0,0,0,219,313l1.9,0,64.66,0,1.95,0a1.7,1.7,0,0,0,1.71-1.71l0-1.12V281.78a1.71,1.71,0,0,0-1.71-1.72H268.1Z" transform="translate(-132.39 -199.6)"/><path class="cls-2" d="M351.16,285.74a34.3,34.3,0,0,0,16.4,4c5,0,9.83-1.05,9.83-5.92,0-11.33-28.18-4.2-28.17-26.34,0-14.64,14-18.64,26-18.63a49.41,49.41,0,0,1,15.39,2.27l-1.05,12.55a31.54,31.54,0,0,0-13.23-2.8c-4,0-10.69.35-10.69,5.67,0,9.84,28.2,3.24,28.18,25.2,0,15.77-13,20-26.23,20a61.93,61.93,0,0,1-17.78-2.63Z" transform="translate(-132.39 -199.6)"/><rect class="cls-2" x="273.98" y="40.03" width="15.89" height="61.44"/><path class="cls-2" d="M490.53,297.25c-10.08,2.53-17.28,4-22.74,4-15.89,0-34.58-7.65-34.57-30s15.83-32.39,37.7-32.39c3.92,0,12.21.43,18,2.63L487.66,255c-5-2.88-11.74-3.82-15.5-3.82-12.9,0-21.87,6.28-21.88,20.07,0,11.59,7.63,17.33,19.25,17.34a13.85,13.85,0,0,0,5.63-1v-11h-9.31V265.39h24.69Z" transform="translate(-132.39 -199.6)"/><polygon class="cls-2" points="409.3 78.4 419.56 41.01 444.71 41.02 444.68 100.66 428.31 100.65 428.33 60.83 429.26 52.82 428.93 52.82 415.27 100.64 400.81 100.64 387.07 52.8 386.75 52.8 387.59 61.13 387.57 100.62 372.81 100.62 372.84 40.98 396.66 41 408.52 78.43 408.92 83.73 409.25 83.73 409.3 78.4"/><path class="cls-2" d="M617,255.59l-.39-3.22h-.09l-.47,3.22-6.21,20h13.7Zm-9-15h19.09l22.49,59.65h-18l-4.34-12.73h-21l-4.61,12.73H585.76Z" transform="translate(-132.39 -199.6)"/></svg>