<svg width="64" height="64" viewBox="0 0 64 64" fill="#002B40" xmlns="http://www.w3.org/2000/svg">
<g clip-path="url(#clip0_68_13)">
<path d="M36.3509 13.4494C36.8787 13.4494 37.3106 13.6174 37.6465 13.9533C37.9824 14.3372 38.1504 14.7691 38.1504 15.2489L38.1504 49.0797C38.1504 49.6076 37.9824 50.0395 37.6465 50.3754C37.3106 50.7113 36.8787 50.8793 36.3509 50.8793L28.0731 50.8793C27.5453 50.8793 27.1134 50.7113 26.7775 50.3754C26.3936 50.0395 26.2016 49.6076 26.2016 49.0797L26.2016 46.3445C25.002 47.8321 23.3944 49.0797 21.3789 50.0875C19.3635 51.0952 16.9881 51.5991 14.2529 51.5991C11.4696 51.5991 9.02229 50.9752 6.91087 49.7276C4.75145 48.4799 3.0719 46.6564 1.87223 44.257C0.624565 41.8577 0.000734334 38.8825 0.000734644 35.3315L0.0007364 15.2489C0.000736442 14.769 0.1687 14.3372 0.50461 13.9533C0.840518 13.6174 1.2724 13.4494 1.80026 13.4494L10.8698 13.4494C11.3497 13.4494 11.7815 13.6174 12.1654 13.9533C12.5013 14.3372 12.6693 14.769 12.6693 15.2489L12.6693 34.8996C12.6693 37.155 13.2212 38.8825 14.3249 40.0822C15.3806 41.3298 16.9641 41.9537 19.0756 41.9537C21.043 41.9537 22.6266 41.3298 23.8263 40.0822C24.978 38.8825 25.5538 37.155 25.5538 34.8996L25.5538 15.2489C25.5538 14.7691 25.7458 14.3372 26.1297 13.9533C26.4656 13.6174 26.8735 13.4494 27.3533 13.4494L36.3509 13.4494Z"/>
<path d="M27.6511 51.1497C27.1232 51.1497 26.6913 50.9817 26.3554 50.6458C26.0195 50.2619 25.8516 49.83 25.8516 49.3501L25.8516 15.5193C25.8516 14.9915 26.0195 14.5596 26.3554 14.2237C26.6913 13.8878 27.1232 13.7198 27.6511 13.7198L35.9288 13.7198C36.4567 13.7198 36.8886 13.8878 37.2245 14.2237C37.6084 14.5596 37.8003 14.9915 37.8003 15.5193V18.2546C39 16.767 40.6076 15.5193 42.623 14.5116C44.6385 13.5039 47.0138 13 49.7491 13C52.5323 13 54.9797 13.6238 57.0911 14.8715C59.2505 16.1192 60.9301 17.9427 62.1297 20.342C63.3774 22.7414 64.0012 25.7165 64.0012 29.2676V49.3501C64.0012 49.83 63.8333 50.2619 63.4973 50.6458C63.1614 50.9817 62.7296 51.1497 62.2017 51.1497L53.1322 51.1497C52.6523 51.1497 52.2204 50.9817 51.8365 50.6458C51.5006 50.2619 51.3327 49.83 51.3327 49.3501V29.6995C51.3327 27.4441 50.7808 25.7166 49.6771 24.5169C48.6214 23.2692 47.0378 22.6454 44.9264 22.6454C42.9589 22.6454 41.3753 23.2692 40.1757 24.5169C39.024 25.7166 38.4481 27.4441 38.4481 29.6995L38.4481 49.3501C38.4481 49.83 38.2562 50.2619 37.8723 50.6458C37.5364 50.9817 37.1285 51.1497 36.6486 51.1497H27.6511Z"/>
</g>
<defs>
<clipPath id="clip0_68_13">
<rect width="64" height="64" rx="16" fill="white"/>
</clipPath>
</defs>
</svg>
