<svg width="913" height="327" viewBox="0 0 913 327" fill="none" xmlns="http://www.w3.org/2000/svg">
<path d="M2 2H144.9V50.51H61.74V91.76H139.96V139.94H61.74V224.43H2V2V2Z" fill="#100C08" stroke="white" stroke-width="4" stroke-miterlimit="10"/>
<path d="M321.47 134.67H241.6V175.59H331.04V224.43H181.87V2H326.42V50.51H241.6V86.48H321.47V134.67Z" fill="#100C08" stroke="white" stroke-width="4" stroke-miterlimit="10"/>
<path d="M364.04 2H423.78V174.61H509.26V224.44H364.04V2Z" fill="#100C08" stroke="white" stroke-width="4" stroke-miterlimit="10"/>
<path d="M598.03 2V224.44H538.29V2H598.03Z" fill="#100C08" stroke="white" stroke-width="4" stroke-miterlimit="10"/>
<path d="M753.8 224.44L737.3 188.14C731.03 173.95 726.08 162.4 720.14 149.53H719.48C715.52 162.4 710.57 173.95 705.29 187.81L690.44 224.44H622.78L685.16 111.9L624.76 2H693.41L708.26 37.31C714.2 50.51 718.49 61.4 723.11 73.94H724.1C729.05 59.42 732.35 49.85 736.97 37.64L750.83 2H818.82L758.09 110.58L822.78 224.44H753.8V224.44Z" fill="#100C08" stroke="white" stroke-width="4" stroke-miterlimit="10"/>
<path d="M26.4597 325.66L4.92969 259.37H14.1297L24.3997 292.02C27.2397 300.97 29.6797 309.04 31.4497 316.81H31.6497C33.5097 309.14 36.2497 300.78 39.1797 292.12L50.3397 259.37H59.4397L35.8597 325.66H26.4597V325.66Z" fill="#100C08"/>
<path d="M153.67 294.58H128.04V318.48H156.61V325.66H119.52V259.37H155.14V266.55H128.04V287.5H153.68V294.58H153.67Z" fill="#100C08"/>
<path d="M220.609 260.25C224.919 259.37 231.079 258.87 236.949 258.87C246.049 258.87 251.919 260.54 256.029 264.28C259.359 267.23 261.219 271.75 261.219 276.87C261.219 285.62 255.739 291.43 248.789 293.79V294.08C253.879 295.85 256.909 300.57 258.479 307.46C260.629 316.71 262.199 323.1 263.569 325.66H254.759C253.679 323.69 252.219 318.09 250.359 309.82C248.399 300.67 244.879 297.23 237.149 296.94H229.129V325.66H220.619V260.25H220.609ZM229.119 290.45H237.829C246.929 290.45 252.699 285.43 252.699 277.86C252.699 269.3 246.539 265.57 237.529 265.47C233.419 265.47 230.479 265.86 229.109 266.26V290.45H229.119Z" fill="#100C08"/>
<path d="M326.199 259.37H361.719V266.55H334.709V288.58H359.659V295.66H334.709V325.66H326.199V259.37Z" fill="#100C08"/>
<path d="M476.99 322.71C473.17 324.09 465.64 326.35 456.73 326.35C446.75 326.35 438.53 323.79 432.07 317.6C426.39 312.09 422.87 303.24 422.87 292.91C422.97 273.14 436.47 258.68 458.59 258.68C466.22 258.68 472.19 260.35 475.03 261.73L472.97 268.71C469.45 267.14 465.04 265.86 458.39 265.86C442.34 265.86 431.87 275.89 431.87 292.52C431.87 309.34 441.95 319.27 457.31 319.27C462.89 319.27 466.7 318.48 468.66 317.5V297.73H455.25V290.85H476.97V322.71H476.99Z" fill="#100C08"/>
<path d="M542.949 260.25C547.259 259.37 553.419 258.87 559.289 258.87C568.389 258.87 574.259 260.54 578.369 264.28C581.699 267.23 583.559 271.75 583.559 276.87C583.559 285.62 578.079 291.43 571.129 293.79V294.08C576.219 295.85 579.249 300.57 580.819 307.46C582.969 316.71 584.539 323.1 585.909 325.66H577.099C576.019 323.69 574.559 318.09 572.699 309.82C570.739 300.67 567.219 297.23 559.489 296.94H551.469V325.66H542.959V260.25H542.949ZM551.459 290.45H560.169C569.269 290.45 575.039 285.43 575.039 277.86C575.039 269.3 568.869 265.57 559.869 265.47C555.759 265.47 552.819 265.86 551.449 266.26V290.45H551.459Z" fill="#100C08"/>
<path d="M705.19 291.83C705.19 314.65 691.39 326.75 674.56 326.75C657.14 326.75 644.91 313.18 644.91 293.11C644.91 272.06 657.92 258.29 675.54 258.29C693.55 258.29 705.19 272.16 705.19 291.83ZM654.01 292.91C654.01 307.07 661.64 319.76 675.05 319.76C688.55 319.76 696.19 307.27 696.19 292.22C696.19 279.04 689.34 265.27 675.15 265.27C661.06 265.27 654.01 278.35 654.01 292.91Z" fill="#100C08"/>
<path d="M803.34 294.58H777.7V318.48H806.27V325.66H769.18V259.37H804.8V266.55H777.69V287.5H803.33V294.58H803.34Z" fill="#100C08"/>
<path d="M870.279 260.16C874.389 259.47 879.769 258.88 886.619 258.88C895.039 258.88 901.199 260.85 905.119 264.39C908.739 267.54 910.889 272.36 910.889 278.26C910.889 284.26 909.129 288.98 905.799 292.42C901.299 297.24 893.959 299.7 885.639 299.7C883.099 299.7 880.749 299.6 878.789 299.11V325.67H870.279V260.16V260.16ZM878.789 292.12C880.649 292.61 882.999 292.81 885.839 292.81C896.109 292.81 902.379 287.79 902.379 278.65C902.379 269.9 896.209 265.67 886.819 265.67C883.099 265.67 880.259 265.96 878.799 266.36V292.12H878.789Z" fill="#100C08"/>
<path d="M844.273 71.855L912.543 71.855V4.25497L844.273 4.25497V71.855Z" fill="#478B26"/>
<path d="M912.544 222.241V154.641H844.274V222.241H912.544Z" fill="#12509F"/>
<path d="M912.537 147.043V79.4434L844.267 79.4434V147.043H912.537Z" fill="#E74011"/>
</svg>
