<svg width="81" height="40" viewBox="0 0 81 40" fill="#002B40" xmlns="http://www.w3.org/2000/svg">
<path d="M22.9512 10.7219C23.2118 10.7219 23.4251 10.8049 23.591 10.9708C23.7569 11.1604 23.8398 11.3736 23.8398 11.6106L23.8398 28.318C23.8398 28.5787 23.7569 28.7919 23.591 28.9578C23.4251 29.1237 23.2118 29.2067 22.9512 29.2067L18.8632 29.2067C18.6025 29.2067 18.3892 29.1237 18.2233 28.9578C18.0337 28.7919 17.939 28.5787 17.939 28.318L17.939 26.9672C17.3465 27.7018 16.5526 28.318 15.5573 28.8156C14.5619 29.3133 13.3889 29.5621 12.0381 29.5621C10.6636 29.5621 9.45494 29.2541 8.41221 28.6379C7.34578 28.0217 6.51634 27.1212 5.92388 25.9363C5.30772 24.7514 4.99964 23.2821 4.99964 21.5284L4.99964 11.6106C4.99964 11.3736 5.08259 11.1604 5.24848 10.9708C5.41437 10.8049 5.62765 10.7219 5.88834 10.7219L10.3673 10.7219C10.6043 10.7219 10.8176 10.8049 11.0072 10.9708C11.1731 11.1604 11.256 11.3736 11.256 11.6106L11.256 21.3151C11.256 22.4289 11.5285 23.2821 12.0736 23.8745C12.595 24.4907 13.377 24.7988 14.4197 24.7988C15.3914 24.7988 16.1734 24.4907 16.7659 23.8745C17.3346 23.2821 17.619 22.4289 17.619 21.3151L17.619 11.6106C17.619 11.3736 17.7138 11.1604 17.9034 10.9708C18.0693 10.8049 18.2707 10.7219 18.5077 10.7219L22.9512 10.7219Z"/>
<path d="M59.7598 29.2781C59.4991 29.2781 59.2858 29.1951 59.1199 29.0292C58.954 28.8396 58.8711 28.6264 58.8711 28.3894V11.682C58.8711 11.4213 58.954 11.2081 59.1199 11.0422C59.2858 10.8763 59.4991 10.7933 59.7598 10.7933H63.8477C64.1084 10.7933 64.3217 10.8763 64.4876 11.0422C64.6772 11.2081 64.772 11.4213 64.772 11.682V13.0328C65.3644 12.2982 66.1583 11.682 67.1537 11.1844C68.149 10.6867 69.3221 10.4379 70.6729 10.4379C72.0474 10.4379 73.256 10.7459 74.2987 11.3621C75.3652 11.9783 76.1946 12.8788 76.7871 14.0637C77.4032 15.2486 77.7113 16.7179 77.7113 18.4716V28.3894C77.7113 28.6264 77.6283 28.8396 77.4625 29.0292C77.2966 29.1951 77.0833 29.2781 76.8226 29.2781L72.3436 29.2781C72.1066 29.2781 71.8933 29.1951 71.7038 29.0292C71.5379 28.8396 71.4549 28.6264 71.4549 28.3894V18.6849C71.4549 17.5711 71.1824 16.7179 70.6373 16.1255C70.116 15.5093 69.3339 15.2012 68.2912 15.2012C67.3196 15.2012 66.5375 15.5093 65.9451 16.1255C65.3763 16.7179 65.0919 17.5711 65.0919 18.6849V28.3894C65.0919 28.6264 64.9971 28.8396 64.8075 29.0292C64.6416 29.1951 64.4402 29.2781 64.2032 29.2781H59.7598Z"/>
<path d="M34.0054 31.6071C33.816 31.443 33.603 31.361 33.3663 31.361L28.893 31.361C28.6563 31.361 28.4551 31.443 28.2894 31.6071C28.1001 31.7712 28.0054 31.9822 28.0054 32.2401L28.0054 35.1209C28.0054 35.3553 28.1001 35.5546 28.2894 35.7187C28.4551 35.9062 28.6563 36 28.893 36L33.3663 36C33.603 36 33.816 35.9062 34.0054 35.7187C34.1711 35.5546 34.2539 35.3553 34.2539 35.1209L34.2539 32.2401C34.2539 31.9822 34.1711 31.7712 34.0054 31.6071Z"/>
<path d="M36.336 4.00008C36.5978 4.00008 36.812 4.09502 36.9786 4.2849C37.1452 4.45105 37.2285 4.6528 37.2285 4.89016L37.2285 7.77399C37.2285 8.03507 37.1452 8.24869 36.9786 8.41484C36.812 8.58099 36.5978 8.63912 36.336 8.63912C35.7409 8.63912 35.2887 8.78274 34.9793 9.02009C34.6699 9.23371 34.4556 9.54227 34.3366 9.94576C34.2176 10.3255 34.1581 10.7646 34.1581 11.2631L34.1581 28.3881C34.1581 28.6492 34.0748 28.8628 33.9082 29.0289C33.7178 29.1951 33.5036 29.2781 33.2656 29.2781L28.8968 29.2781C28.635 29.2781 28.4208 29.1951 28.2542 29.0289C28.0876 28.8628 28.0043 28.6492 28.0043 28.3881L28.0043 11.1207C28.0043 9.57787 28.3137 8.2843 28.9325 7.23994C29.5276 6.17186 30.3963 5.36486 31.5388 4.81895C32.6813 4.27304 34.0737 4.00008 35.716 4.00008L36.336 4.00008Z"/>
<path d="M46.3729 35.9999C46.1134 35.9999 45.9011 35.905 45.736 35.7151C45.5708 35.5489 45.4883 35.3472 45.4883 35.1098V32.226C45.4883 31.9649 45.5708 31.7513 45.736 31.5852C45.9011 31.419 46.1134 31.3359 46.3729 31.3359H46.3891C46.9788 31.3359 47.427 31.2173 47.7337 30.9799C48.0403 30.7663 48.2526 30.4577 48.3706 30.0542C48.4885 29.6745 48.5475 29.2354 48.5475 28.7369V11.6119C48.5475 11.3508 48.63 11.1372 48.7952 10.9711C48.9839 10.8049 49.1962 10.7219 49.4321 10.7219L53.8196 10.7219C54.0791 10.7219 54.2914 10.8049 54.4565 10.9711C54.6216 11.1372 54.7042 11.3508 54.7042 11.6119V28.8793C54.7042 30.4221 54.3975 31.7157 53.7842 32.7601C53.1945 33.8281 52.3335 34.6351 51.2012 35.1811C50.069 35.727 48.689 35.9999 47.0614 35.9999H46.3729Z"/>
<path d="M49.3426 8.63566C49.106 8.63566 48.8929 8.55203 48.7036 8.38478C48.5379 8.21752 48.4551 8.00247 48.4551 7.73964V4.89602C48.4551 4.65708 48.5379 4.45399 48.7036 4.28673C48.8929 4.09558 49.106 4 49.3426 4L53.816 4C54.0527 4 54.2539 4.09558 54.4196 4.28673C54.6089 4.45399 54.7036 4.65708 54.7036 4.89602V7.73964C54.7036 8.00247 54.6089 8.21752 54.4196 8.38478C54.2539 8.55203 54.0527 8.63566 53.816 8.63566H49.3426Z"/>
<path d="M44.229 31.6071C44.0627 31.443 43.8488 31.361 43.5875 31.361L39.3104 31.361C39.0728 31.361 38.8708 31.443 38.7045 31.6071C38.5144 31.7712 38.4194 31.9822 38.4194 32.2401L38.4194 35.1209C38.4194 35.3553 38.5144 35.5546 38.7045 35.7187C38.8708 35.9062 39.0728 36 39.3104 36L43.5875 36C43.8488 36 44.0627 35.9062 44.229 35.7187C44.3954 35.5546 44.4785 35.3553 44.4785 35.1209L44.4785 32.2401C44.4785 31.9822 44.3954 31.7712 44.229 31.6071Z"/>
<path d="M44.229 4.25091C44.0627 4.08365 43.8488 4.00003 43.5875 4.00003L39.3104 4.00003C39.0728 4.00003 38.8708 4.08365 38.7045 4.25091C38.5144 4.41817 38.4194 4.63322 38.4194 4.89605L38.4194 7.73966C38.4194 7.9786 38.5144 8.1817 38.7045 8.34896C38.8708 8.54011 39.0728 8.63568 39.3104 8.63568L43.5875 8.63568C43.8488 8.63568 44.0627 8.54011 44.229 8.34896C44.3954 8.1817 44.4785 7.9786 44.4785 7.73966L44.4785 4.89605C44.4785 4.63322 44.3954 4.41817 44.229 4.25091Z"/>
<path d="M43.4972 10.722C43.7575 10.722 43.9706 10.8052 44.1362 10.9718C44.3019 11.1621 44.3848 11.3762 44.3848 11.6141L44.3848 28.386C44.3848 28.6477 44.3019 28.8618 44.1362 29.0283C43.9706 29.1949 43.7575 29.2781 43.4972 29.2781L39.3079 29.2781C39.0475 29.2781 38.8345 29.1949 38.6688 29.0283C38.5031 28.8618 38.4203 28.6477 38.4203 28.386L38.4203 11.6141C38.4203 11.3762 38.5031 11.1621 38.6688 10.9718C38.8345 10.8052 39.0475 10.722 39.3079 10.722L43.4972 10.722Z"/>
</svg>
