<?xml version="1.0" encoding="utf-8"?>
<!-- Generator: Adobe Illustrator 18.0.0, SVG Export Plug-In . SVG Version: 6.00 Build 0)  -->
<!DOCTYPE svg PUBLIC "-//W3C//DTD SVG 1.1//EN" "http://www.w3.org/Graphics/SVG/1.1/DTD/svg11.dtd">
<svg version="1.1" id="Layer_1" xmlns="http://www.w3.org/2000/svg" xmlns:xlink="http://www.w3.org/1999/xlink" x="0px" y="0px"
	 viewBox="-4 -4 290 290" enable-background="new -4 -4 290 290" xml:space="preserve">
<g>
	<g opacity="0.75">
		<circle fill="#1B3460" cx="145" cy="145" r="141"/>
	</g>
	<g>
		<g>
			<circle fill="#124C94" cx="141" cy="141" r="141"/>
		</g>
	</g>
</g>
<g>
	<g id="phone_1_">
		<path fill="#FCEA00" d="M93.2,130.2c12.8,25.2,33.4,45.7,58.6,58.6l19.6-19.6c2.4-2.4,6-3.2,9.1-2.1c10,3.3,20.7,5.1,31.7,5.1
			c4.9,0,8.9,4,8.9,8.9v31c0,4.9-4,8.9-8.9,8.9C128.6,221,61,153.4,61,69.9c0-4.9,4-8.9,8.9-8.9H101c4.9,0,8.9,4,8.9,8.9
			c0,11.1,1.8,21.8,5.1,31.7c1,3.1,0.3,6.6-2.2,9.1C112.7,110.7,93.2,130.2,93.2,130.2z"/>
	</g>
</g>
</svg>
