<?xml version="1.0" encoding="utf-8"?>
<!-- Generator: Adobe Illustrator 18.0.0, SVG Export Plug-In . SVG Version: 6.00 Build 0)  -->
<!DOCTYPE svg PUBLIC "-//W3C//DTD SVG 1.1//EN" "http://www.w3.org/Graphics/SVG/1.1/DTD/svg11.dtd">
<svg version="1.1" id="Layer_1" xmlns="http://www.w3.org/2000/svg" xmlns:xlink="http://www.w3.org/1999/xlink" x="0px" y="0px"
	 viewBox="0 0 320 320" enable-background="new 0 0 320 320" xml:space="preserve">
<g>
	<g opacity="0.75">
		<circle fill="#1B3460" cx="164.4" cy="164.4" r="155.6"/>
	</g>
	<g>
		<circle fill="#114D93" cx="160" cy="160" r="155.6"/>
	</g>
</g>
<path id="_79475448" fill="#FCEA00" d="M136.8,118.1c-0.4-1.3-0.5-4.2-0.5-4.2c-1.5-0.7-5,1.4-4.7,3.8c0.6,4.8,4,4,3.5,5.8
	c-0.3,0.7-1,0.6-1.9,0.4c-0.9-0.2-8.3-2.2-8.1-10.4c0.2-7.9,7-11.1,14.9-11c7,0.1,14.2,3.5,19.1,9.9c4,5.3,6.3,12.1,5.8,19
	c-0.6,7.3-2.8,11.8-5.4,14.8c-5,5.9-11.6,5.6-12.6,5.6c-5.1,0.1-12.5-2.3-16.2-2.1c-3.7,0.2-7.6,1.6-8.3,2.1c-0.3,0.2-0.6,0.2-0.8,0
	V151c0-0.1,0-0.1,0.1-0.2c0.4-1,1.7-9.9,11.6-11.4c0,0-4.6-8.6,6.5-14.7C138.2,122.1,137.2,119.3,136.8,118.1z M137.7,130.6
	c0.1,3.2,3,4.1,3,4.1c1.8-2.4,1-7.4-0.8-9.4C139.6,125.6,137.6,127.5,137.7,130.6z M147.8,130.7c0,3.2-1.7,5.3-4.6,6.5
	c3.7,0.2,6.3-3.3,6.2-6.9c-0.1-3.6-2.9-7.7-4.9-10.3C146.3,124.1,147.8,127.5,147.8,130.7z M151.4,127.3c1.2,5.7-1,11.4-7.5,12.7
	c3.2,1.2,9.5,3,10.8,2.7c1.2-0.3,4.4-2.4,4.6-6.8c0.3-4.5-1.4-8.8-3.6-12.1c-2.1-3.3-6.3-8.2-11-8.8
	C144.8,117,150.3,121.9,151.4,127.3z M138.5,107.1c12.2-0.2,19.9,9.5,21.8,12.6c-3.1-8.3-10.6-14.6-20.7-14.8
	c-10.2-0.2-12.1,7.3-11.2,10.3C128.5,114.8,129.4,107.3,138.5,107.1z M152.4,145.3c-7.2-0.5-13.6-7-23.5-1.4
	C138.6,142.2,143.9,147.4,152.4,145.3z M179.1,118.8l6,8.2v3.3l-9.8,7.8v2.7l2.6,2.6l3.2-2.5l1.4,1.4v3.4l-7.7,6.3l-7.6-7.5v-16.1
	L179.1,118.8z M175.3,132l2.3-1.9l-2.3-3V132z M171.1,142.6l3.5,3.4l1.4-1.3l-3-3.2v-15.3l-2,1.5V142.6z M180.8,127.6l1.4-1.1
	l-3.6-4.6l-1.3,1.1L180.8,127.6z M64.1,171.9c0,0-3.2-2.1-5.5-0.1c-1.8,1.5-1.2,4.5-1.2,4.5l-4.3,3.5c-0.4-4-0.1-8.9,3.7-13.6
	c2.6-3.2,5.6-4,7.7-4.2h3.1c4.8,0.5,11.3,3.9,17,3.9c4.8,0,5-2.5,6.1-2.3c1.1,0.1,1,4.6-1.7,6.6c-2.7,2.1-4.9,2.5-6.5,2.8v24.8
	c0,0,4.7-4.3,7.4-10.4c-0.3,18-10.7,24.5-19.6,24.5c-8.8,0-18-7.9-18-19C52.3,181.7,59.4,176.5,64.1,171.9z M87.7,168.3
	c-8.7,1.9-13.5-4.2-21.4-4.2c-4.3,0-6.2,1.5-7,2.9c2-1.2,4.5-1.2,5.9-1.2C72.7,165.8,82.1,174.1,87.7,168.3z M67.5,173.1
	c-1.9,1.8-4.7,8.6-4.9,11c0,0,9.5-7.6,11-9.2C73.7,174.8,67.7,173.1,67.5,173.1z M67.7,186.5c0,0-3.5,2.8-4.7,3.7c0,0,0.9,4,4.7,6.7
	V186.5z M72.8,191.6l2-1.4v-13.7l-2,1.5V191.6z M76.5,193l-1.2,3.2l-3.9,2.9c1.9,1.1,5.7,1.1,7.1,0.2v-23.1l-2,1.6V193z M60.7,199.3
	c3.4,4,8.8,5.2,12,5.2c3.2,0,5.4-0.9,9.1-3.6c-3.4,1.2-11.7,2.6-18.1-3.7c-5.7-5.6-4.5-14.6-1.5-20C54.6,186,57.3,195.3,60.7,199.3z
	 M125.5,199.5c0,0.7,0,4.6,0,4.6l-7.7,8.1l-7.5-8.5l2.6-3c0,0,0-27,0-28.5c0-1.5-1.4-3.6-2.4-3.9l7.4-5.2c2.7,2,3.3,5.9,3.3,8
	c0,2,0,30.5,0,30.5s2.4-2.3,3.1-3L125.5,199.5z M117.2,171.3c0,0.9,0,29.3,0,29.3l-0.7,1.4l1.9,2.1l1.5-1.3c0,0-0.8-1.1-0.8-1.8
	c0-0.7,0-26.6,0-29.6c0-3-0.8-4.8-1.8-6l-1.5,1.1C117.2,167.4,117.2,170.4,117.2,171.3L117.2,171.3z M165.1,184.6l2.1-1.8l1,1.3
	l-2.4,4.8v11.7c0,4.1,5.4,7.4,3.5,13.9c-0.9,3.9-7,4.8-8.5,4.9c-2,0.2-5.4,1.7-6.2,2.7c-1.7-2.3-3.9-3.7-6.4-4.2
	c-0.7-2.8,1.5-5.8,5.5-5.8c4.1,0,6.4,2.7,6.4,2.7c0.8-0.3,2.9-0.9,2.9-2.7c0-1.8-1.8-3.7-3.7-5.4l-5.8,4.7l-6.4-6.1v-15.9l13-11.3
	L165.1,184.6L165.1,184.6z M156,216.4l1.1-0.7c-1.4-2.3-3.2-1.8-4.3-1.5C153.7,214.6,155.6,215.9,156,216.4z M153.6,186.5l-2,1.8
	v13.2l3.1,3.1l1.4-1.2l-2.5-2.7V186.5z M155.7,199.8l2.1,2v-13.5l-2.1-2.6V199.8z M161.7,187.3c0,0,0,9.8,0,13.5c0,4.5,5,7.1,5,10.4
	c1.6-3-3-6.8-3-10.3c0-1.8,0-13.9,0-13.9l-4.1-5.6l-1.5,1.2L161.7,187.3L161.7,187.3z M178.7,178.4l3,3.2l4.7-3.3l2.8,3.3l2.6-1.7
	l0.9,0.7v4.6l-8.1,6.1l-3.5-4.1v12.5l1.5,1.5l2-1.6l0.8,0.9v4.6l-7.5,6.5l-6.5-6.4c0,0,1.2-1.4,1.2-2.6c0-1.2,0-16.9,0-16.9l-1-1.1
	l-0.8,0.4l-0.5-0.6L178.7,178.4z M177.1,183.9v18l2.1,2.1l1.5-1.3L179,201v-17.9l-1.7-2l-1.7,1.3L177.1,183.9z M186.3,183.9l1.1-0.9
	l-1.9-2.3l-1.1,1L186.3,183.9z M192.2,187.8l11.5-9.6l6.4,5.4l1-0.9l1.3,1.1l-1.6,4.1v12.8l1.6,1.5l1.4-1.3l1.3,1.4v3.8l-6.3,5.5
	l-4.3-4.4l-5.5,4.5l-6.9-7.2V187.8z M200.5,200.6l1.8,1.8v-15l-1.8-1.7V200.6z M197.9,185.4l-1.8,1.6v15.4l3.3,3.3l1.4-1.3l-2.9-3
	V185.4z M206.3,186v16.2l2.8,3l1.3-1.3l-2-2.3v-16.4l-5-4.3l-1.5,1.4L206.3,186z M245.2,173.2l9.8-9.3h3.9c1,1.9,5.3,3.7,7.6,2.9v1
	l-6.2,6.7c-1.5,0-5.2-1.5-5.9-1.9v5.8h5.4v2l-3.7,3.7h-1.8v20.5l-4.1,4.1v10.6l-5.1,4.2v-39.5h-6.3v-1.5l4.2-4.1h2.1V173.2z
	 M256.3,165.1l-1.2,1.2c0,0,2,2.6,5.5,2.3C260.6,168.6,258.2,167.7,256.3,165.1z M250.1,205.8l1.7-1.9V169l-1.7,2V205.8z M103.7,179
	l6,8.2v3.3l-9.8,7.8v2.7l2.6,2.6l3.2-2.5l1.4,1.4v3.4l-7.7,6.3l-7.6-7.5v-16.1L103.7,179z M99.9,192.2l2.3-1.9l-2.3-3V192.2z
	 M95.7,202.8l3.5,3.4l1.4-1.3l-3-3.2v-15.3l-2,1.5V202.8z M105.4,187.9l1.4-1.1l-3.6-4.6l-1.3,1.1L105.4,187.9z M139.4,179l6,8.2
	v3.3l-9.8,7.8v2.7l2.6,2.6l3.2-2.5l1.4,1.4v3.4l-7.7,6.3l-7.6-7.5v-16.1L139.4,179z M135.5,192.2l2.3-1.9l-2.3-3V192.2z
	 M131.4,202.8l3.5,3.4l1.4-1.3l-3-3.2v-15.3l-2,1.5V202.8z M141,187.9l1.4-1.1l-3.6-4.6l-1.3,1.1L141,187.9z M217.5,187.8l11.5-9.6
	l6.4,5.4l1-0.9l1.3,1.1l-1.6,4.1v12.8l1.6,1.5l1.4-1.3l1.3,1.4v3.8l-6.3,5.5l-4.3-4.4l-5.5,4.5l-6.9-7.2V187.8z M225.8,200.6
	l1.8,1.8v-15l-1.8-1.7V200.6z M223.2,185.4l-1.8,1.6v15.4l3.3,3.3l1.4-1.3l-2.9-3V185.4z M231.6,186v16.2l2.8,3l1.3-1.3l-2-2.3
	v-16.4l-5-4.3l-1.5,1.4L231.6,186z"/>
</svg>
