<?xml version="1.0" encoding="utf-8"?>
<!-- Generator: Adobe Illustrator 18.0.0, SVG Export Plug-In . SVG Version: 6.00 Build 0)  -->
<!DOCTYPE svg PUBLIC "-//W3C//DTD SVG 1.1//EN" "http://www.w3.org/Graphics/SVG/1.1/DTD/svg11.dtd">
<svg version="1.1" id="Layer_1" xmlns="http://www.w3.org/2000/svg" xmlns:xlink="http://www.w3.org/1999/xlink" x="0px" y="0px"
	 viewBox="0 0 290 290" enable-background="new 0 0 290 290" xml:space="preserve">
<g>
	<g opacity="0.75">
		<circle fill="#1B3460" cx="149" cy="149" r="141"/>
	</g>
	<g>
		<circle fill="#114D93" cx="145" cy="145" r="141"/>
	</g>
</g>
<g>
	<g id="news_1_">
		<path fill="#FCEA00" d="M211.4,86.6L198.6,73L185,86.6L171.4,73l-13.6,13.6L145,73l-13.6,13.6L118.6,73L105,86.6L91.4,73
			L78.6,86.6L65,73v128c0,8.8,7.2,16,16,16h128c8.8,0,16-7.2,16-16V73L211.4,86.6z M145,201H81v-56h64V201z M209,201h-56v-8h56V201z
			 M209,185h-56v-8h56V185z M209,169h-56v-8h56V169z M209,153h-56v-8h56V153z M209,137H81v-24h128V137z"/>
	</g>
</g>
</svg>
